<?xml version="1.0" encoding="UTF-8" standalone="no"?>
<!-- Created with Inkscape (http://www.inkscape.org/) -->

<svg
   xmlns:dc="http://purl.org/dc/elements/1.1/"
   xmlns:cc="http://creativecommons.org/ns#"
   xmlns:rdf="http://www.w3.org/1999/02/22-rdf-syntax-ns#"
   xmlns:svg="http://www.w3.org/2000/svg"
   xmlns="http://www.w3.org/2000/svg"
   xmlns:sodipodi="http://sodipodi.sourceforge.net/DTD/sodipodi-0.dtd"
   xmlns:inkscape="http://www.inkscape.org/namespaces/inkscape"
   id="svg2"
   version="1.1"
   inkscape:version="0.48.3.1 r9886"
   width="1069.805"
   height="818.16375"
   xml:space="preserve"
   sodipodi:docname="Globaleaks.svg"><metadata
     id="metadata8"><rdf:RDF><cc:Work
         rdf:about=""><dc:format>image/svg+xml</dc:format><dc:type
           rdf:resource="http://purl.org/dc/dcmitype/StillImage" /></cc:Work></rdf:RDF></metadata><defs
     id="defs6"><clipPath
       clipPathUnits="userSpaceOnUse"
       id="clipPath30"><path
         d="m 0,654.531 855.844,0 L 855.844,0 0,0 0,654.531 z"
         id="path32" /></clipPath></defs><sodipodi:namedview
     pagecolor="#ffffff"
     bordercolor="#666666"
     borderopacity="1"
     objecttolerance="10"
     gridtolerance="10"
     guidetolerance="10"
     inkscape:pageopacity="0"
     inkscape:pageshadow="2"
     inkscape:window-width="1920"
     inkscape:window-height="1023"
     id="namedview4"
     showgrid="false"
     inkscape:zoom="0.28845081"
     inkscape:cx="534.90253"
     inkscape:cy="409.08188"
     inkscape:window-x="0"
     inkscape:window-y="27"
     inkscape:window-maximized="1"
     inkscape:current-layer="g10" /><g
     id="g10"
     inkscape:groupmode="layer"
     inkscape:label="globaleaks-logo-colorfix-2013-07-18"
     transform="matrix(1.25,0,0,-1.25,0,818.16375)"><g
       id="g3244"><path
         id="path12"
         style="fill:#ffffff;fill-opacity:1;fill-rule:nonzero;stroke:none"
         d="m 561.112,629.496 4.173,0 0,0.585 -4.173,0 0,-0.585 z" /><g
         transform="translate(433.0811,630.0811)"
         id="g14"><path
           id="path16"
           style="fill:#00adef;fill-opacity:1;fill-rule:nonzero;stroke:none"
           d="m 0,0 -262.536,0 -107.51,-218.661 60.199,0 -62.42,-223.986 372.267,0 L 0,0 z" /></g><g
         transform="translate(170.5446,630.081)"
         id="g18"><path
           id="path20"
           style="fill:#3d86cf;fill-opacity:1;fill-rule:nonzero;stroke:none"
           d="m 0,0 -107.51,-218.661 60.2,0 -62.42,-223.986 372.266,0 L 262.536,0 0,0 z" /></g><g
         transform="translate(387.2656,630.0811)"
         id="g22"><path
           id="path24"
           style="fill:#151b34;fill-opacity:1;fill-rule:nonzero;stroke:none"
           d="m 0,0 -107.508,-218.645 49.604,0 0,-224.008 472.765,0 L 414.861,0 0,0 z" /></g><g
         id="g26"><g
           clip-path="url(#clipPath30)"
           id="g28"><g
             transform="translate(802.127,187.4395)"
             id="g34"><path
               id="path36"
               style="fill:#ffffff;fill-opacity:1;fill-rule:nonzero;stroke:none"
               d="m 0,0 -187.762,0 33.187,95.083 c 3.162,8.917 -1.516,18.704 -10.433,21.855 -8.916,3.153 -18.704,-1.519 -21.854,-10.432 l -6.279,-16.623 0,68.014 c 0,12.233 -9.914,22.147 -22.151,22.147 -5.674,0 -10.851,-2.151 -14.769,-5.667 l 0,3.212 c 0,11.866 -9.355,21.483 -21.093,22.043 l 2.76,24.365 -58.677,0 107.504,218.645 L 0,442.642 0,0 z m -265.899,193.713 c -4.312,-4.047 -7.043,-9.745 -7.043,-16.124 l 0,-3.212 c -3.923,3.516 -9.082,5.667 -14.775,5.667 -12.226,0 -22.14,-9.914 -22.14,-22.147 l 0,-19.196 c -1.065,0.208 -2.159,0.324 -3.291,0.324 -9.507,0 -17.22,-7.713 -17.22,-17.233 l 0,-121.792 -72.693,0 33.199,95.083 c 3.151,8.917 -1.527,18.704 -10.438,21.855 -8.924,3.153 -18.71,-1.519 -21.854,-10.432 l -6.278,-16.623 0,68.014 c 0,12.233 -9.92,22.147 -22.159,22.147 -5.675,0 -10.844,-2.151 -14.763,-5.667 l 0,3.212 c 0,11.866 -9.36,21.483 -21.099,22.043 l 2.762,24.365 -58.679,0 107.503,218.645 199.562,0 -115.063,-234.058 66.161,0 -1.692,-14.871 z m -216.715,0 c -4.319,-4.047 -7.043,-9.745 -7.043,-16.124 l 0,-3.212 c -3.924,3.516 -9.082,5.667 -14.775,5.667 -12.232,0 -22.147,-9.914 -22.147,-22.147 l 0,-19.196 c -1.064,0.208 -2.154,0.324 -3.285,0.324 -9.513,0 -17.225,-7.713 -17.225,-17.233 l 0,-121.798 -194.223,0 15.17,54.421 c 3.011,-0.644 6.107,-1.094 9.312,-1.094 l 17.707,0 c 24.731,0 44.78,20.049 44.78,44.785 l 0,4.051 c 0,24.737 -20.049,44.785 -44.78,44.785 l -1.235,0 21.465,77.038 -60.199,0 107.51,218.662 199.562,0 -115.069,-234.058 66.159,0 -1.684,-14.871 z m -158.548,264.336 -122.655,-249.46 64.658,0 -62.438,-223.987 777.004,0.003 0,473.444 -656.569,0 z m 469.518,-154.407 c 7.002,0 12.665,5.676 12.665,12.676 0,7.001 -5.663,12.677 -12.665,12.677 -7.006,0 -12.675,-5.676 -12.675,-12.677 0,-7 5.669,-12.676 12.675,-12.676 m 1.417,25.353 c -7.005,0 -12.674,-5.676 -12.674,-12.677 0,-7 5.669,-12.676 12.674,-12.676 7.002,0 12.671,5.676 12.671,12.676 0,7.001 -5.669,12.677 -12.671,12.677 m -216.714,0 c -7.008,0 -12.677,-5.676 -12.677,-12.677 0,-7 5.669,-12.676 12.677,-12.676 7.001,0 12.669,5.676 12.669,12.676 0,7.001 -5.668,12.677 -12.669,12.677 m -216.716,0 c -7.008,0 -12.676,-5.676 -12.676,-12.677 0,-7 5.668,-12.676 12.676,-12.676 6.995,0 12.664,5.676 12.664,12.676 0,7.001 -5.669,12.677 -12.664,12.677" /></g></g></g><g
         id="text38"
         style=""
         transform="matrix(1,0,0,-1,60.813,59.251)"><path
           id="path3224"
           style="font-size:140.64370728px;font-variant:normal;font-weight:bold;font-stretch:condensed;writing-mode:lr-tb;fill:#3d86cf;fill-opacity:1;fill-rule:nonzero;stroke:none;font-family:Helvetica Neue;-inkscape-font-specification:HelveticaNeue-CondensedBlack"
           d="m 39.942813,-54.569758 0,17.721107 9.282485,0 c -5e-5,4.313106 -0.234456,7.876076 -0.703219,10.688921 -0.375098,2.719136 -0.937672,4.87567 -1.687724,6.469611 -0.750146,1.500218 -1.68777,2.531604 -2.812875,3.094162 -1.03143,0.56259 -2.250341,0.843878 -3.656736,0.843862 -1.96905,1.6e-5 -3.563011,-0.515678 -4.781886,-1.547081 -1.125184,-1.031369 -2.015927,-2.859735 -2.67223,-5.485105 -0.562608,-2.625323 -0.937657,-6.141413 -1.12515,-10.548278 -0.187557,-4.50056 -0.281319,-10.126303 -0.281288,-16.877244 -3.1e-5,-6.750841 0.09373,-12.329703 0.281288,-16.736602 0.187493,-4.500527 0.562542,-8.063497 1.12515,-10.688921 0.656303,-2.625269 1.593927,-4.453636 2.812874,-5.485105 1.312637,-1.031303 3.047241,-1.546996 5.203817,-1.547081 3.094117,8.5e-5 5.110008,1.453402 6.047679,4.359955 0.937577,2.437902 1.406389,6.329041 1.406437,11.673428 l 25.315868,0 c -7.4e-5,-6.094486 -0.797054,-11.251417 -2.390943,-15.470808 -1.594032,-4.312985 -3.797448,-7.829074 -6.610255,-10.548278 -2.812936,-2.719014 -6.188381,-4.688024 -10.126347,-5.907035 -3.844312,-1.21881 -8.063619,-1.82827 -12.657933,-1.82837 -7.688557,1e-4 -13.970636,1.17213 -18.846257,3.516094 -4.875667,2.250396 -8.719924,5.57896 -11.532784,9.985703 -2.7191205,4.406921 -4.594368,9.845139 -5.6257483,16.31467 -0.9376297,6.469677 -1.4064416,13.923786 -1.4064371,22.36235 -4.5e-6,8.344901 0.2344015,15.752129 0.7032186,22.221705 0.562569,6.469632 1.8283611,11.90785 3.7973801,16.31467 1.9690007,4.4068437 4.8756347,7.7354081 8.7199097,9.9857035 3.84424,2.15653639 9.094933,3.2348037 15.752095,3.2348053 2.250264,-1.6e-6 4.45368,-0.1406451 6.610255,-0.4219311 2.250257,-0.2812883 4.313029,-0.75010019 6.188323,-1.40643711 1.968963,-0.75009879 3.703567,-1.82836609 5.203817,-3.23480529 1.593909,-1.4064321 2.81282,-3.1879173 3.656736,-5.3444609 l 0.281288,0 L 55.976195,0 l 17.721108,0 0,-54.569758 -33.75449,0" /><path
           id="path3226"
           style="font-size:140.64370728px;font-variant:normal;font-weight:bold;font-stretch:condensed;writing-mode:lr-tb;fill:#3d86cf;fill-opacity:1;fill-rule:nonzero;stroke:none;font-family:Helvetica Neue;-inkscape-font-specification:HelveticaNeue-CondensedBlack"
           d="m 84.386222,-100.41961 0,100.41961 58.367138,0 0,-21.377844 -32.20741,0 0,-79.041766 -26.159728,0" /><path
           id="path3228"
           style="font-size:140.64370728px;font-variant:normal;font-weight:bold;font-stretch:condensed;writing-mode:lr-tb;fill:#3d86cf;fill-opacity:1;fill-rule:nonzero;stroke:none;font-family:Helvetica Neue;-inkscape-font-specification:HelveticaNeue-CondensedBlack"
           d="m 173.55433,-50.209803 c -3e-5,-6.750841 0.0937,-12.329703 0.28129,-16.736602 0.18749,-4.500527 0.56254,-8.063497 1.12515,-10.688921 0.6563,-2.625269 1.54704,-4.453636 2.67223,-5.485105 1.21887,-1.031303 2.81283,-1.546996 4.78188,-1.547081 1.96897,8.5e-5 3.51605,0.515778 4.64125,1.547081 1.21886,1.031469 2.10961,2.859836 2.67223,5.485105 0.65629,2.625424 1.07822,6.188394 1.26579,10.688921 0.18748,4.406899 0.28124,9.985761 0.28129,16.736602 -5e-5,6.750941 -0.0938,12.376684 -0.28129,16.877244 -0.18757,4.406865 -0.6095,7.922955 -1.26579,10.548278 -0.56262,2.62537 -1.45337,4.453736 -2.67223,5.485105 -1.1252,1.031403 -2.67228,1.547097 -4.64125,1.547081 -1.96905,1.6e-5 -3.56301,-0.515678 -4.78188,-1.547081 -1.12519,-1.031369 -2.01593,-2.859735 -2.67223,-5.485105 -0.56261,-2.625323 -0.93766,-6.141413 -1.12515,-10.548278 -0.18756,-4.50056 -0.28132,-10.126303 -0.28129,-16.877244 m -27.00359,0 c 0,9.376287 0.60945,17.392971 1.82837,24.050073 1.2189,6.563393 3.23479,11.95473 6.04768,16.1740268 2.81286,4.1255546 6.51647,7.0790695 11.11085,8.8605535 4.59433,1.78148634 10.22008,2.6722289 16.87724,2.6722305 6.65709,-1.6e-6 12.28284,-0.89074416 16.87725,-2.6722305 4.5943,-1.781484 8.29791,-4.7349989 11.11085,-8.8605535 2.81281,-4.2192968 4.8287,-9.6106338 6.04768,-16.1740268 1.21884,-6.657102 1.82829,-14.673786 1.82837,-24.050073 -8e-5,-9.376188 -0.60953,-17.34599 -1.82837,-23.909431 -1.21898,-6.657054 -3.23487,-12.048391 -6.04768,-16.174026 -2.81294,-4.219217 -6.51655,-7.266494 -11.11085,-9.141841 -4.59441,-1.968909 -10.22016,-2.953419 -16.87725,-2.953519 -6.65716,1e-4 -12.28291,0.98461 -16.87724,2.953519 -4.59438,1.875347 -8.29799,4.922624 -11.11085,9.141841 -2.81289,4.125635 -4.82878,9.516972 -6.04768,16.174026 -1.21892,6.563441 -1.82837,14.533243 -1.82837,23.909431" /><path
           id="path3230"
           style="font-size:140.64370728px;font-variant:normal;font-weight:bold;font-stretch:condensed;writing-mode:lr-tb;fill:#3d86cf;fill-opacity:1;fill-rule:nonzero;stroke:none;font-family:Helvetica Neue;-inkscape-font-specification:HelveticaNeue-CondensedBlack"
           d="m 254.70574,-18.846257 0,-24.472005 7.31347,0 c 2.43778,4.3e-5 4.59432,1.03143 6.46961,3.094162 1.8752,2.062812 2.81283,5.063208 2.81288,9.001197 -5e-5,4.219338 -0.93768,7.360378 -2.81288,9.423128 -1.87529,1.969032 -4.03183,2.953537 -6.46961,2.953518 l -7.31347,0 m 0,-42.193112 0,-20.533981 6.32897,0 c 2.71907,8.1e-5 4.78184,1.031468 6.18832,3.094161 1.40639,2.062851 2.10961,4.500673 2.10965,7.313473 -4e-5,2.71918 -0.70326,5.110121 -2.10965,7.172829 -1.40648,1.969074 -3.46925,2.953579 -6.18832,2.953518 l -6.32897,0 m -26.15973,-39.380241 0,100.41961 39.52088,0 c 5.43817,0 10.07941,-0.70321783 13.92373,-2.1096556 3.8442,-1.5001959 6.93835,-3.5629683 9.28248,-6.1883231 2.43776,-2.6253383 4.21924,-5.7663783 5.34446,-9.4231283 1.12508,-3.656715 1.68765,-7.641616 1.68773,-11.954715 -8e-5,-2.625317 -0.37513,-5.203783 -1.12515,-7.735404 -0.65641,-2.625309 -1.73468,-5.01625 -3.23481,-7.172829 -1.50027,-2.15649 -3.4224,-3.937975 -5.76639,-5.344461 -2.34412,-1.500148 -5.157,-2.390891 -8.43862,-2.672231 l 0,-0.281287 c 2.81281,-0.562521 5.20375,-1.547026 7.17283,-2.953518 1.96894,-1.40638 3.5629,-3.094102 4.78188,-5.063173 1.31261,-2.062712 2.25023,-4.313009 2.81288,-6.750898 0.65626,-2.531517 0.98443,-5.109982 0.9845,-7.735404 -7e-5,-7.594677 -2.25037,-13.642351 -6.75089,-18.143038 -4.4069,-4.594263 -11.29844,-6.891445 -20.67463,-6.891545 l -39.52088,0" /><path
           id="path3232"
           style="font-size:140.64370728px;font-variant:normal;font-weight:bold;font-stretch:condensed;writing-mode:lr-tb;fill:#3d86cf;fill-opacity:1;fill-rule:nonzero;stroke:none;font-family:Helvetica Neue;-inkscape-font-specification:HelveticaNeue-CondensedBlack"
           d="m 341.20162,-79.885626 -7.17283,42.615044 14.62695,0 -7.17283,-42.615044 -0.28129,0 M 357.79758,-100.41961 382.26959,0 l -27.84746,0 -2.67223,-17.580463 -20.81527,0 L 328.2624,0 l -27.42552,0 24.05007,-100.41961 32.91063,0" /><path
           id="path3234"
           style="font-size:140.64370728px;font-variant:normal;font-weight:bold;font-stretch:condensed;writing-mode:lr-tb;fill:#151b34;fill-opacity:1;fill-rule:nonzero;stroke:none;font-family:Helvetica Neue;-inkscape-font-specification:HelveticaNeue-CondensedBlack"
           d="m 386.62955,-100.41961 0,100.41961 58.36713,0 0,-21.377844 -32.2074,0 0,-79.041766 -26.15973,0" /><path
           id="path3236"
           style="font-size:140.64370728px;font-variant:normal;font-weight:bold;font-stretch:condensed;writing-mode:lr-tb;fill:#3d86cf;fill-opacity:1;fill-rule:nonzero;stroke:none;font-family:Helvetica Neue;-inkscape-font-specification:HelveticaNeue-CondensedBlack"
           d="m 451.74756,-100.41961 0,100.41961 60.75808,0 0,-21.377844 -34.59835,0 0,-19.971406 31.2229,0 0,-20.533981 -31.2229,0 0,-17.158532 33.33256,0 0,-21.377847 -59.49229,0" /><path
           id="path3238"
           style="font-size:140.64370728px;font-variant:normal;font-weight:bold;font-stretch:condensed;writing-mode:lr-tb;fill:#3d86cf;fill-opacity:1;fill-rule:nonzero;stroke:none;font-family:Helvetica Neue;-inkscape-font-specification:HelveticaNeue-CondensedBlack"
           d="m 554.83941,-79.885626 -7.17283,42.615044 14.62695,0 -7.17283,-42.615044 -0.28129,0 M 571.43537,-100.41961 595.90737,0 l -27.84745,0 -2.67223,-17.580463 -20.81527,0 L 541.90019,0 l -27.42552,0 24.05007,-100.41961 32.91063,0" /><path
           id="path3240"
           style="font-size:140.64370728px;font-variant:normal;font-weight:bold;font-stretch:condensed;writing-mode:lr-tb;fill:#3d86cf;fill-opacity:1;fill-rule:nonzero;stroke:none;font-family:Helvetica Neue;-inkscape-font-specification:HelveticaNeue-CondensedBlack"
           d="m 599.2828,-100.41961 0,100.41961 26.15973,0 0,-26.581661 5.4851,-8.438622 L 646.25779,0 l 29.81647,0 -28.41003,-56.53877 25.31587,-43.88084 -27.84745,0 -19.40884,38.536379 -0.28128,0 0,-38.536379 -26.15973,0" /><path
           id="path3242"
           style="font-size:140.64370728px;font-variant:normal;font-weight:bold;font-stretch:condensed;writing-mode:lr-tb;fill:#3d86cf;fill-opacity:1;fill-rule:nonzero;stroke:none;font-family:Helvetica Neue;-inkscape-font-specification:HelveticaNeue-CondensedBlack"
           d="m 717.56419,-71.447003 24.47201,0 c -7e-5,-10.782602 -2.57854,-18.611761 -7.73541,-23.487499 -5.06323,-4.969311 -13.31432,-7.454018 -24.75329,-7.454118 -11.064,1e-4 -19.31509,2.672331 -24.75329,8.016692 -5.43823,5.34455 -8.15734,13.126828 -8.15734,23.346856 0,5.907101 0.9845,10.688982 2.95352,14.345658 2.06276,3.656789 4.59435,6.610304 7.59476,8.860554 3.09414,2.250344 6.42271,4.078711 9.9857,5.485104 3.56295,1.406478 6.84463,2.812914 9.84506,4.219311 3.09413,1.312712 5.62571,2.953553 7.59476,4.92253 2.06273,1.875281 3.09412,4.453746 3.09416,7.735404 -4e-5,2.719134 -0.75014,5.016313 -2.2503,6.891542 -1.40647,1.875266 -3.46925,2.81289 -6.18832,2.812874 -2.53162,1.6e-5 -4.59439,-0.843846 -6.18832,-2.531587 -1.59399,-1.781467 -2.39097,-4.828744 -2.39094,-9.141841 l 0,-2.390943 -25.31587,0 0,3.516093 c -10e-6,5.250719 0.75009,9.657551 2.2503,13.220508 1.50019,3.5629837 3.65672,6.4696174 6.46961,8.7199101 2.90662,2.156539 6.42271,3.65673707 10.54828,4.50059861 4.21928,0.93762359 9.04804,1.40643549 14.4863,1.40643709 11.53273,-1.6e-6 20.3464,-2.3909422 26.44101,-7.1728291 6.0945,-4.8756377 9.14177,-12.6579157 9.14185,-23.3468557 -8e-5,-6.094525 -1.07834,-11.01705 -3.23481,-14.767589 -2.06284,-3.844214 -4.68819,-6.938372 -7.87605,-9.282485 -3.18798,-2.344006 -6.61031,-4.219254 -10.26699,-5.625748 -3.65678,-1.500139 -7.07911,-2.953456 -10.26699,-4.359955 -3.18796,-1.406373 -5.86019,-3.047214 -8.01669,-4.92253 -2.0628,-1.968942 -3.09419,-4.594288 -3.09416,-7.876047 -3e-5,-2.250221 0.65631,-4.266113 1.96901,-6.04768 1.31264,-1.875165 3.37541,-2.812789 6.18832,-2.812874 2.53155,8.5e-5 4.4068,1.078352 5.62575,3.234805 1.21887,2.062854 1.82832,4.594438 1.82837,7.594761 l 0,2.390943" /></g></g></g></svg>