<svg xmlns="http://www.w3.org/2000/svg"><symbol id="wd-archive-folder" viewBox="0 0 24 24"><title>archive-folder</title><path d="M3.75 11.625a.75.75 0 010-1.5h16.5a.75.75 0 010 1.5H3.75zm0-3.75a.75.75 0 010-1.5h16.5a.75.75 0 010 1.5H3.75zm0-3.75a.75.75 0 010-1.5h16.5a.75.75 0 010 1.5H3.75zm-1.5 17.25A2.252 2.252 0 010 19.125v-3.75c0-.827.673-1.5 1.5-1.5H9a.75.75 0 01.75.75 2.252 2.252 0 002.25 2.25 2.252 2.252 0 002.25-2.25.75.75 0 01.75-.75h7.5c.827 0 1.5.673 1.5 1.5v3.75a2.252 2.252 0 01-2.25 2.25H2.25zm-.75-2.25c0 .414.336.75.75.75h19.5a.75.75 0 00.75-.75v-3.75h-6.825c-.35 1.732-1.875 3-3.675 3s-3.324-1.268-3.675-3H1.5v3.75z"/></symbol><symbol id="wd-bulb" viewBox="0 0 24 24"><title>bulb</title><path d="M12 3a.75.75 0 01-.75-.75V.75a.75.75 0 011.5 0v1.5A.75.75 0 0112 3zM1.5 12a.75.75 0 010-1.5H3A.75.75 0 013 12H1.5zm3.35-6.443a.747.747 0 01-.52-.209l-1.1-1.057A.752.752 0 013.75 3c.195 0 .379.074.52.209l1.1 1.057a.748.748 0 01.021 1.061.756.756 0 01-.541.23zM21 12a.75.75 0 010-1.5h1.5a.75.75 0 010 1.5H21zm-1.85-6.443a.751.751 0 01-.52-1.291l1.1-1.057a.747.747 0 011.061.021.751.751 0 01-.021 1.061l-1.1 1.057a.75.75 0 01-.52.209zM12 24a.75.75 0 01-.75-.75v-1.5h-.75a2.252 2.252 0 01-2.25-2.25v-1.758c-2.319-1.307-3.784-3.832-3.75-6.498a7.597 7.597 0 017.487-7.495c4.146.073 7.44 3.362 7.513 7.487.035 2.67-1.429 5.198-3.75 6.506V19.5a2.252 2.252 0 01-2.25 2.25h-.75v1.5A.75.75 0 0112 24zm-2.25-4.5c0 .414.336.75.75.75h3a.75.75 0 00.75-.75V18h-4.5v1.5zm5.153-3A5.895 5.895 0 0018 11.26a6.1 6.1 0 00-6.013-6.01A6.091 6.091 0 006 11.267 5.893 5.893 0 009.097 16.5h2.153v-2.689l-2.03-2.03a.747.747 0 010-1.061c.141-.142.33-.22.53-.22s.389.078.53.22L12 12.44l1.72-1.72a.744.744 0 011.06 0c.142.141.22.33.22.53s-.078.389-.22.53l-2.03 2.03v2.69h2.153z"/></symbol><symbol id="wd-business-deal-handshake" viewBox="0 0 24 24"><title>business-deal-handshake</title><path d="M10.659 19.499a2.09 2.09 0 01-1.585-.725l-3.28-3.676H4.123a1.687 1.687 0 01-1.334.653l-.07-.001H.749a.75.75 0 01.001-1.5h2.001c.095 0 .167-.034.209-.091a.825.825 0 01.04-.115V7.666c-.004-.08-.106-.167-.218-.167L.75 7.5a.75.75 0 010-1.5h2l.052-.001c.802 0 1.497.589 1.662 1.36l3.458-1.383a2.836 2.836 0 012.748.35l.013.01 2.411-1.213a3.108 3.108 0 012.456-.142l4.376 1.601A1.705 1.705 0 0121.283 6h1.967a.75.75 0 010 1.5l-2.027-.001a.219.219 0 00-.224.202L21 14.083c.004.081.098.168.199.168l.035-.001h2.015a.75.75 0 010 1.5h-2l-.053.001c-.486 0-.942-.213-1.264-.579l-4.663.891a.763.763 0 01-.193.01 2.396 2.396 0 01-2.289 1.659l-.063-.001a2.09 2.09 0 01-2.065 1.768zM6.13 13.598a.75.75 0 01.559.25l3.512 3.936a.592.592 0 001.049-.377v-.304l-.758-.758a.752.752 0 01.53-1.281c.2 0 .389.078.53.22l.869.869.032.013a.904.904 0 001.178-.505c.009-.021.016-.044.023-.067l-1.206-1.206a.744.744 0 010-1.06.749.749 0 011.06 0l1.248 1.248h.178a.719.719 0 00.574-1.148l-2.805-3.594-1.52.502a1.907 1.907 0 01-2.321-1.009 1.908 1.908 0 01.278-2.046 1.37 1.37 0 00-.658.087L4.5 8.96v4.638h1.63zm10.57-1.081a2.242 2.242 0 01.428 1.664l2.372-.453V8.025L15.034 6.39a1.588 1.588 0 00-1.265.073l-3.36 1.69a.41.41 0 00-.186.543.403.403 0 00.49.216l3.467-1.146a.75.75 0 11.471 1.425l-.435.144 2.484 3.182z"/></symbol><symbol id="wd-calendar-3" viewBox="0 0 24 24"><title>calendar-3</title><path d="M2.25 24A2.252 2.252 0 010 21.75V5.25A2.252 2.252 0 012.25 3H6V.75a.75.75 0 011.5 0V3h9V.75a.75.75 0 011.5 0V3h3.75A2.252 2.252 0 0124 5.25v16.5A2.252 2.252 0 0121.75 24H2.25zm-.75-2.25c0 .414.336.75.75.75h19.5a.75.75 0 00.75-.75V10.5h-21v11.25zM22.5 9V5.25a.75.75 0 00-.75-.75H18V6a.75.75 0 01-1.5 0V4.5h-9V6A.75.75 0 016 6V4.5H2.25a.75.75 0 00-.75.75V9h21z"/><circle cx="5.625" cy="13.875" r="1.125"/><circle cx="5.625" cy="19.125" r="1.125"/><circle cx="12" cy="13.875" r="1.125"/><circle cx="12" cy="19.125" r="1.125"/><circle cx="18.375" cy="13.875" r="1.125"/><path d="M18.375 20.25c-.62 0-1.125-.505-1.125-1.125a1.127 1.127 0 011.171-1.122l.027.003a1.118 1.118 0 011.052 1.12c0 .619-.505 1.124-1.125 1.124z"/></symbol><symbol id="wd-common-file-text-search" viewBox="0 0 24 24"><title>common-file-text-search</title><path d="M3.75 7.5a.75.75 0 010-1.5h10.5a.75.75 0 010 1.5H3.75zm0 4.5a.75.75 0 010-1.5H7.5a.75.75 0 010 1.5H3.75zm0 4.5a.75.75 0 010-1.5H7.5a.75.75 0 010 1.5H3.75z"/><path d="M2.25 21A2.252 2.252 0 010 18.75V2.25A2.252 2.252 0 012.25 0h10.629c.601 0 1.165.234 1.59.658l2.872 2.872c.425.425.659.99.659 1.591V7.5a.75.75 0 01-1.5 0V5.121c0-.197-.08-.39-.219-.53l-2.872-2.872a.748.748 0 00-.53-.219H2.25a.75.75 0 00-.75.75v16.5c0 .414.336.75.75.75H7.5a.75.75 0 010 1.5H2.25z"/><path d="M23.25 24a.742.742 0 01-.531-.221l-3.279-3.292a5.989 5.989 0 01-3.676 1.263c-3.308 0-6-2.692-6-6s2.692-6 6-6 6 2.692 6 6a5.99 5.99 0 01-1.263 3.677l3.281 3.294a.747.747 0 01-.003 1.06.744.744 0 01-.529.219zm-7.486-12.75c-2.481 0-4.5 2.019-4.5 4.5s2.019 4.5 4.5 4.5 4.5-2.019 4.5-4.5-2.019-4.5-4.5-4.5z"/></symbol><symbol id="wd-envelope" viewBox="0 0 24 24"><title>envelope</title><path d="M2.25 20.25A2.252 2.252 0 010 18V6a2.25 2.25 0 01.599-1.524A2.255 2.255 0 012.25 3.75h19.5a2.253 2.253 0 011.703.784c.351.404.547.927.547 1.466v12a2.252 2.252 0 01-2.25 2.25H2.25zM1.5 18c0 .414.336.75.75.75h19.5a.75.75 0 00.75-.75V6.187l-5.616 3.873 3.125 2.889a.751.751 0 01-.509 1.301.75.75 0 01-.509-.199l-3.373-3.118-1.825 1.259a3.135 3.135 0 01-1.793.556 3.14 3.14 0 01-1.793-.556l-1.825-1.258-3.373 3.118a.754.754 0 01-1.06-.042.751.751 0 01.041-1.06l3.125-2.889L1.5 6.187V18zm9.559-7.043c.276.191.601.291.941.291.34 0 .665-.101.941-.291l8.276-5.707H2.783l8.276 5.707z"/></symbol><symbol id="wd-filter-text" viewBox="0 0 24 24"><title>filter-text</title><path d="M8.247 24a2.252 2.252 0 01-2.25-2.25v-6a.75.75 0 011.5 0v6c0 .414.336.75.75.75h13.5a.75.75 0 00.75-.75v-15a.75.75 0 00-.75-.75h-7.5a.75.75 0 010-1.5h7.5a2.252 2.252 0 012.25 2.25v15a2.252 2.252 0 01-2.25 2.25h-13.5z"/><path d="M12.747 10.5a.75.75 0 010-1.5h7.503a.75.75 0 010 1.5h-7.503zm-2.25 4.5a.75.75 0 010-1.5h9.753a.75.75 0 010 1.5h-9.753zm.003 4.5a.75.75 0 010-1.5h9.75a.75.75 0 010 1.5H10.5zm-5.25-6a.75.75 0 01-.75-.75V7.061L.531 3.091A1.812 1.812 0 011.811 0h9.878c.484 0 .938.188 1.28.53a1.8 1.8 0 01.531 1.281c0 .483-.188.938-.53 1.281L9 7.061V9.75c0 .2-.078.389-.22.53l-3 3a.741.741 0 01-.53.22zm-3.439-12a.312.312 0 00-.22.531l4.19 4.189c.141.141.219.33.219.53v4.189l1.5-1.5V6.75c0-.2.078-.389.22-.53l4.189-4.189a.309.309 0 00.091-.22.309.309 0 00-.311-.311H1.811z"/></symbol><symbol id="wd-historical-building-pillar" viewBox="0 0 24 24"><title>historical-building-pillar</title><path d="M9.76 9a.75.75 0 010-1.5h4.5a.75.75 0 010 1.5h-4.5zm0-3a.75.75 0 010-1.5h4.5a.75.75 0 010 1.5h-4.5zm7.492 18a.75.75 0 01-.75-.75v-12a.75.75 0 011.5 0v12a.75.75 0 01-.75.75zm-10.5 0a.75.75 0 01-.75-.75v-12a.75.75 0 011.5 0v12a.75.75 0 01-.75.75zm3 0a.75.75 0 01-.75-.75v-12a.75.75 0 011.5 0v12a.75.75 0 01-.75.75zm4.5 0a.75.75 0 01-.75-.75v-12a.75.75 0 011.5 0v12a.75.75 0 01-.75.75z"/><path d="M19.626 9.912a3.696 3.696 0 01-3.68-3.446 3.107 3.107 0 012.898-3.299l.035-.001a2.637 2.637 0 011.873.653c.15.132.24.315.252.515a.752.752 0 01-1.245.609 1.105 1.105 0 00-.818-.279 1.605 1.605 0 00-1.498 1.749c.073 1.11 1.03 1.999 2.178 1.999a2.904 2.904 0 002.15-.993 2.9 2.9 0 00.722-2.115l-.001-.054a3.754 3.754 0 00-3.75-3.75H5.26a3.754 3.754 0 00-3.75 3.75.965.965 0 01-.003.076c-.101 1.591 1.124 2.979 2.732 3.08a2.191 2.191 0 002.326-2.04 1.594 1.594 0 00-.397-1.164 1.586 1.586 0 00-1.176-.541c-.267 0-.526.095-.73.269a.75.75 0 11-.973-1.142 2.628 2.628 0 011.873-.622 3.077 3.077 0 012.13 1.043c.548.621.822 1.418.77 2.245a3.698 3.698 0 01-3.918 3.449c-.018-.001-.036-.002-.053-.005C1.699 9.719-.141 7.616.011 5.212A5.174 5.174 0 011.55 1.537 5.22 5.22 0 015.26 0h13.484a5.256 5.256 0 015.25 5.25 4.355 4.355 0 01-1.092 3.161 4.398 4.398 0 01-3.276 1.501z"/></symbol><symbol id="wd-human-resources-team-settings" viewBox="0 0 24 24"><title>human-resources-team-settings</title><path d="M8.255 24a.749.749 0 01-.662-.397 3.476 3.476 0 00-2.069-1.701 3.511 3.511 0 00-1.024-.154c-.567 0-1.135.143-1.642.414a3.487 3.487 0 00-1.441 1.441.75.75 0 01-1.325-.706 4.983 4.983 0 012.723-2.353 3.38 3.38 0 01-1.686-2.919c0-1.861 1.514-3.375 3.375-3.375s3.375 1.514 3.375 3.375c0 1.242-.68 2.333-1.686 2.919a4.964 4.964 0 012.723 2.353A.752.752 0 018.255 24zm-3.75-8.25c-1.034 0-1.875.841-1.875 1.875S3.471 19.5 4.505 19.5s1.875-.841 1.875-1.875-.841-1.875-1.875-1.875zM23.255 24a.748.748 0 01-.662-.397 3.48 3.48 0 00-2.069-1.701 3.498 3.498 0 00-1.023-.153 3.504 3.504 0 00-3.084 1.855.751.751 0 01-1.325-.707 4.977 4.977 0 012.724-2.354 3.382 3.382 0 01-1.687-2.919c0-1.861 1.514-3.375 3.375-3.375s3.375 1.514 3.375 3.375a3.38 3.38 0 01-1.686 2.919 4.964 4.964 0 012.723 2.353.75.75 0 01-.661 1.104zm-3.75-8.25c-1.034 0-1.875.841-1.875 1.875s.841 1.875 1.875 1.875 1.875-.841 1.875-1.875-.841-1.875-1.875-1.875zm-7.5-9c-1.861 0-3.375-1.514-3.375-3.375S10.144 0 12.005 0s3.375 1.514 3.375 3.375-1.514 3.375-3.375 3.375zm0-5.25c-1.034 0-1.875.841-1.875 1.875s.841 1.875 1.875 1.875 1.875-.841 1.875-1.875S13.039 1.5 12.005 1.5z"/><path d="M15.254 9a.748.748 0 01-.571-.264 3.521 3.521 0 00-5.358 0 .748.748 0 01-1.319-.426.743.743 0 01.177-.546A5.017 5.017 0 0112 6.001c1.476 0 2.87.642 3.824 1.762A.751.751 0 0115.254 9zm-3.249 12.001a8.991 8.991 0 01-3.216-.593.751.751 0 01.266-1.451c.092 0 .182.017.268.05a7.508 7.508 0 005.406-.017.754.754 0 01.97.428.748.748 0 01-.428.971 9 9 0 01-3.266.612zM3.791 13.5a.745.745 0 01-.746-.682A8.8 8.8 0 013.004 12a8.994 8.994 0 012.837-6.547.748.748 0 011.262.572.749.749 0 01-.237.523A7.49 7.49 0 004.504 12c0 .206.011.423.035.682a.75.75 0 01-.748.818zm16.426 0a.751.751 0 01-.747-.82c.023-.251.035-.474.035-.68a7.491 7.491 0 00-2.363-5.453.749.749 0 111.025-1.094A8.996 8.996 0 0121.004 12c0 .255-.014.523-.042.82a.743.743 0 01-.745.68z"/><path d="M12.005 18a.75.75 0 01-.75-.75v-.848c-.27-.07-.53-.178-.771-.32l-.601.6a.748.748 0 01-1.061-.001.75.75 0 01.001-1.06l.6-.6c-.142-.24-.25-.5-.32-.771h-.848a.75.75 0 010-1.5h.849c.07-.27.178-.53.32-.771l-.601-.601c-.142-.141-.22-.33-.22-.53s.078-.389.22-.53c.141-.142.33-.22.53-.22s.389.078.53.22l.601.601c.241-.142.501-.25.771-.32V9.75a.75.75 0 011.5 0v.849c.27.07.53.178.771.32l.601-.601a.744.744 0 011.06 0c.142.141.22.33.22.53s-.078.389-.22.53l-.601.601c.142.241.25.501.32.771h.848a.75.75 0 010 1.5h-.848c-.07.27-.178.53-.32.771l.6.599a.751.751 0 01-1.06 1.062l-.601-.6c-.241.142-.501.25-.771.32v.848a.75.75 0 01-.749.75zm0-6c-.827 0-1.5.673-1.5 1.5s.673 1.5 1.5 1.5 1.5-.673 1.5-1.5-.673-1.5-1.5-1.5z"/></symbol><symbol id="wd-layers-stacked" viewBox="0 0 24 24"><title>layers-stacked</title><path d="M11.993 14.251a2.3 2.3 0 01-1.052-.255L.732 8.714a1.367 1.367 0 01.002-2.427l10.206-5.28a2.307 2.307 0 012.104 0l10.21 5.281a1.365 1.365 0 010 2.427l-10.209 5.281a2.307 2.307 0 01-1.052.255zm-.363-1.588a.792.792 0 00.727 0l9.979-5.162-9.979-5.162a.788.788 0 00-.727 0L1.652 7.501l9.978 5.162z"/><path d="M11.996 18.751c-.366 0-.73-.088-1.055-.256L.433 13.426a.746.746 0 01-.349-1.001.752.752 0 011.001-.349l10.527 5.078a.847.847 0 00.385.096c.125 0 .25-.03.361-.088l10.576-5.087a.75.75 0 01.65 1.351l-10.557 5.078c-.309.16-.668.247-1.031.247z"/><path d="M11.996 23.251c-.366 0-.73-.088-1.055-.256L.433 17.926a.746.746 0 01-.349-1.001.753.753 0 011.002-.349l10.527 5.078a.834.834 0 00.385.096c.125 0 .25-.03.361-.087l10.576-5.087a.75.75 0 01.65 1.351l-10.557 5.078c-.31.159-.669.246-1.032.246z"/></symbol><symbol id="wd-legal-certificate" viewBox="0 0 24 24"><title>legal-certificate</title><path d="M.75 24a.75.75 0 010-1.5 3.754 3.754 0 003.75-3.75v-6a.75.75 0 011.5 0v6a5.222 5.222 0 01-1.576 3.75h8.326a3.754 3.754 0 003.75-3.75v-15c0-.823.267-1.607.752-2.25H9.75a.75.75 0 010-1.5h10.5C22.318 0 24 1.682 24 3.75S22.318 7.5 20.25 7.5A3.725 3.725 0 0118 6.748V18.75A5.256 5.256 0 0112.75 24h-12zm19.5-22.5C19.009 1.5 18 2.509 18 3.75S19.009 6 20.25 6s2.25-1.009 2.25-2.25-1.009-2.25-2.25-2.25z"/><path d="M7.731 10.05c-.2 0-.399-.049-.577-.143L5.25 8.913l-1.902.995a1.23 1.23 0 01-1.792-1.294l.364-2.112-1.543-1.5a1.228 1.228 0 01.687-2.094l2.126-.307.952-1.917A1.24 1.24 0 016.354.677L7.309 2.6l2.136.308c.463.067.844.384.994.828.147.447.025.944-.311 1.268L8.583 6.503l.364 2.111a1.233 1.233 0 01-1.216 1.436zM5.25 7.379c.2 0 .4.049.578.143l1.549.809-.297-1.718c-.068-.4.065-.806.355-1.087l1.25-1.212-1.727-.249a1.232 1.232 0 01-.928-.669l-.78-1.57-.778 1.568a1.238 1.238 0 01-.915.67l-1.736.251 1.247 1.213c.289.281.422.686.355 1.084L3.127 8.33l1.548-.81c.176-.092.375-.141.575-.141zM8.25 18a.75.75 0 010-1.5h6a.75.75 0 010 1.5h-6zm0-3a.75.75 0 010-1.5h6a.75.75 0 010 1.5h-6zm3-3a.75.75 0 010-1.5h3a.75.75 0 010 1.5h-3zm0-3a.75.75 0 010-1.5h3a.75.75 0 010 1.5h-3z"/></symbol><symbol id="wd-list-quill" viewBox="0 0 24 24"><title>list-quill</title><path d="M2.25 24.009A2.252 2.252 0 010 21.759v-19.5A2.252 2.252 0 012.25.009h10.629c.6 0 1.165.234 1.59.658l5.872 5.871c.425.426.659.991.659 1.592v.128a.75.75 0 01-.75.75h-6A2.252 2.252 0 0112 6.758v-5.25H2.25a.75.75 0 00-.75.75v19.5c0 .414.336.75.75.75h6a.75.75 0 010 1.5h-6zM13.5 6.759c0 .414.336.75.75.75h4.94l-5.69-5.69v4.94z"/><path d="M5.435 13.509a1.482 1.482 0 01-1.056-.438L3.22 11.912c-.142-.141-.22-.33-.22-.53s.078-.389.22-.53c.141-.142.33-.22.53-.22s.389.078.53.22l1.157 1.157 2.132-2.842a.753.753 0 011.05-.15.75.75 0 01.15 1.05l-2.132 2.842a1.492 1.492 0 01-1.202.6zm0 6.75a1.482 1.482 0 01-1.056-.438L3.22 18.662c-.142-.141-.22-.33-.22-.53s.078-.389.22-.53a.744.744 0 011.06 0l1.157 1.157 2.132-2.842a.753.753 0 011.049-.15.75.75 0 01.15 1.05l-2.132 2.842a1.492 1.492 0 01-1.201.6zm5.546 3.75a.743.743 0 01-.53-.22.744.744 0 010-1.06l1.73-1.73c-.374-.703-.479-1.623-.302-2.684.391-2.351 2.243-5.438 5.499-7.035a.747.747 0 01.991.319l.619 1.153 1.314-2.089a.747.747 0 01.554-.346 11.196 11.196 0 012.402 0c.351.038.625.31.665.661.627 5.517-2.721 9.193-5.778 10.664-1.101.53-2.197.81-3.169.81-.659 0-1.252-.135-1.735-.391l-1.731 1.731a.75.75 0 01-.529.217zm3.427-3.117c.17.034.359.051.562.051.75 0 1.647-.232 2.525-.655 2.476-1.191 5.225-4.128 4.99-8.528a10.173 10.173 0 00-1.11.015l-1.802 2.865a.737.737 0 01-.625.351l-.044-.001a.75.75 0 01-.626-.394l-.873-1.625c-2.387 1.429-3.749 3.804-4.046 5.59-.08.478-.081.912-.009 1.269l2.934-2.934a.744.744 0 011.06 0 .752.752 0 010 1.061l-2.936 2.935z"/></symbol><symbol id="wd-multiple-circle" viewBox="0 0 24 24"><title>multiple-circle</title><path d="M12 7.5c-2.068 0-3.75-1.682-3.75-3.75S9.932 0 12 0s3.75 1.682 3.75 3.75S14.068 7.5 12 7.5zm0-6c-1.241 0-2.25 1.009-2.25 2.25S10.759 6 12 6s2.25-1.009 2.25-2.25S13.241 1.5 12 1.5zM10.5 21a.751.751 0 01-.744-.657L9.088 15H8.25a.75.75 0 01-.75-.75V12c0-2.481 2.019-4.5 4.5-4.5s4.5 2.019 4.5 4.5v2.25a.75.75 0 01-.75.75h-.838l-.668 5.343A.751.751 0 0113.5 21h-3zm2.338-1.5l.668-5.343a.752.752 0 01.744-.657H15V12c0-1.654-1.346-3-3-3s-3 1.346-3 3v1.5h.75c.377 0 .697.282.744.657l.668 5.343h1.676zM4.5 9c-1.654 0-3-1.346-3-3s1.346-3 3-3 3 1.346 3 3-1.346 3-3 3zm0-4.5C3.673 4.5 3 5.173 3 6s.673 1.5 1.5 1.5S6 6.827 6 6s-.673-1.5-1.5-1.5z"/><path d="M3 19.5a.748.748 0 01-.74-.626L1.615 15H.75a.75.75 0 01-.75-.75v-.75c0-.488.08-.97.235-1.432a4.473 4.473 0 012.266-2.597 4.456 4.456 0 011.998-.472c.488 0 .972.08 1.44.237a.75.75 0 01-.477 1.422 2.971 2.971 0 00-2.294.156 2.984 2.984 0 00-1.511 1.732 2.977 2.977 0 00-.157.954h.75c.368 0 .679.263.74.626L3.635 18h1.729l.271-1.629a.747.747 0 01.863-.617.748.748 0 01.617.863l-.375 2.256A.749.749 0 016 19.5H3zM19.5 9c-1.654 0-3-1.346-3-3s1.346-3 3-3 3 1.346 3 3-1.346 3-3 3zm0-4.5c-.827 0-1.5.673-1.5 1.5s.673 1.5 1.5 1.5S21 6.827 21 6s-.673-1.5-1.5-1.5z"/><path d="M18 19.5a.749.749 0 01-.74-.627l-.376-2.256a.746.746 0 01.739-.873c.368 0 .679.264.74.627L18.635 18h1.729l.646-3.873a.747.747 0 01.74-.627h.75c0-.325-.053-.646-.157-.954a2.984 2.984 0 00-1.511-1.732 2.971 2.971 0 00-2.293-.156.753.753 0 01-.95-.472.751.751 0 01.471-.95 4.523 4.523 0 011.44-.237c.696 0 1.368.159 1.998.472a4.477 4.477 0 012.266 2.597c.156.462.236.943.236 1.431v.751a.75.75 0 01-.75.75h-.865l-.646 3.873A.747.747 0 0121 19.5h-3zM12 24c-.966 0-4.352-.039-7.381-.539C1.511 22.948 0 22.143 0 21a.75.75 0 011.497-.062C1.904 21.417 5.372 22.5 12 22.5s10.096-1.083 10.502-1.562A.751.751 0 0124 21c0 1.143-1.511 1.948-4.619 2.461-3.029.5-6.415.539-7.381.539z"/></symbol><symbol id="wd-newspaper-fold" viewBox="0 0 24 24"><title>newspaper-fold</title><path d="M3 23.25c-1.654 0-3-1.346-3-3V3A2.252 2.252 0 012.25.75h15A2.252 2.252 0 0119.5 3v17.25c0 .827.673 1.5 1.5 1.5s1.5-.673 1.5-1.5V6A.75.75 0 0124 6v14.25c0 1.654-1.346 3-3 3H3zm-.75-21A.75.75 0 001.5 3v17.25c0 .827.673 1.5 1.5 1.5h15.401a2.973 2.973 0 01-.401-1.5V3a.75.75 0 00-.75-.75h-15z"/><path d="M4.5 15.75a.75.75 0 010-1.5H15a.75.75 0 010 1.5H4.5zm0 3a.75.75 0 010-1.5h6a.75.75 0 010 1.5h-6zM5.25 12c-.827 0-1.5-.673-1.5-1.5V6c0-.827.673-1.5 1.5-1.5h9c.827 0 1.5.673 1.5 1.5v4.5c0 .827-.673 1.5-1.5 1.5h-9zm0-1.5h9V6h-9v4.5z"/></symbol><symbol id="wd-newspaper-give" viewBox="0 0 24 24"><title>newspaper-give</title><path d="M5.25 24a.75.75 0 01-.75-.75V19.5a.748.748 0 01.751-.749c.194 0 .378.073.518.207l2.754 2.625a2.252 2.252 0 001.606.669c.601 0 1.165-.233 1.589-.656l2.625-2.625a.753.753 0 00-1.062-1.064l-2.625 2.625a.748.748 0 01-1.06.001L6.22 17.16a2.264 2.264 0 00-1.594-.66H.75a.75.75 0 010-1.5h3.879c1 .003 1.941.393 2.65 1.097l2.846 2.843 2.095-2.095c.425-.424.99-.657 1.591-.657.603 0 1.168.234 1.593.66.424.425.657.99.657 1.593 0 .602-.235 1.167-.66 1.591l-2.625 2.625a3.724 3.724 0 01-2.651 1.096 3.723 3.723 0 01-2.651-1.096L6 21.251v1.999a.75.75 0 01-.75.75zM1.505 13.501a4.59 4.59 0 01-.904-.091.751.751 0 01.148-1.485c.051 0 .102.005.152.016a3.01 3.01 0 003.535-2.344A3.004 3.004 0 00.899 6.06a.752.752 0 01-.884-.586.75.75 0 01.586-.884 4.516 4.516 0 011.791 0 4.505 4.505 0 013.514 5.305 4.47 4.47 0 01-1.925 2.856c-.74.491-1.596.75-2.476.75zM15.75 15a.725.725 0 01-.414-.128.623.623 0 01-.13-.11l-.031-.032c-.251-.221-1.962-1.562-6.591-1.621a1.102 1.102 0 01-1.077-1.1V1.096a1.09 1.09 0 01.315-.771c.196-.2.461-.311.766-.325 4.175.055 6.291 1.089 7.162 1.681C16.622 1.09 18.736.055 22.895 0a1.09 1.09 0 011.103 1.098v10.915a1.097 1.097 0 01-1.069 1.096c-4.628.059-6.335 1.388-6.598 1.621a.641.641 0 01-.071.077.542.542 0 01-.068.049.747.747 0 01-.377.139.401.401 0 01-.058.005h-.007zm.75-2.147c1.151-.575 3.031-1.151 5.998-1.235V1.509c-3.753.117-5.472 1.101-5.998 1.481v9.863zm-7.493-1.236c2.963.084 4.842.659 5.993 1.233V2.989c-.526-.379-2.244-1.365-6.001-1.48l.008 10.108z"/></symbol><symbol id="wd-newspaper-read-man" viewBox="0 0 24 24"><title>newspaper-read-man</title><path d="M6.698 10.431a.756.756 0 01-.732-.587l-.672-3.02a.755.755 0 01-.075-.355A5.246 5.246 0 019.006.376 13.742 13.742 0 0112.386 0l.163-.001c1.075 0 2.145.125 3.18.372a5.252 5.252 0 013.801 6.131.759.759 0 01-.063.301l-.677 3.04a.744.744 0 01-.895.569.745.745 0 01-.47-.33.746.746 0 01-.099-.566l.472-2.12c-.614.071-1.177.107-1.677.107-2.045 0-3.04-.59-3.745-1.214-.708.622-1.703 1.211-3.752 1.211-.501 0-1.06-.035-1.667-.104l.473 2.122a.751.751 0 01-.732.913zm5.677-5.932c.198 0 .392.081.531.221.686.689 1.278 1.284 3.213 1.284.569 0 1.239-.054 1.994-.161a3.721 3.721 0 00-2.753-4.019 11.977 11.977 0 00-2.973-.324l-.184-.001c-.955 0-1.907.111-2.829.331A3.709 3.709 0 006.64 5.843c.752.106 1.418.159 1.984.159 1.938 0 2.532-.594 3.219-1.283a.76.76 0 01.532-.22zm0 19.501a.74.74 0 01-.219-.033l-6.911-2.112c-.71-.259-1.152-.915-1.119-1.637v-.341a3.504 3.504 0 01-1.217-.556c-.67-.488-1.037-1.157-1.033-1.885v-.896c0-.583.239-1.128.69-1.577.393-.391.938-.683 1.558-.837v-1.177a1.583 1.583 0 01.05-.526c.109-.404.369-.742.732-.95a1.563 1.563 0 011.253-.134l6.216 2.279 6.228-2.279.063-.02a1.563 1.563 0 011.189.154c.363.208.623.546.732.95.046.172.063.349.05.526V14.4c.307.152.574.341.798.563.451.449.689.994.689 1.576v.9c.003.725-.364 1.394-1.035 1.882-.138.101-.29.192-.452.273v.657c.033.694-.4 1.34-1.079 1.59L12.6 23.964a.719.719 0 01-.225.036zm.75-1.763l5.956-1.817c.02-.008.061-.065.058-.134v-.295a3.522 3.522 0 01-.25.009c-.616 0-1.173-.213-1.548-.584a1.497 1.497 0 01-.459-1.058l-.008-2.697a1.492 1.492 0 01.453-1.061c.378-.38.934-.598 1.527-.598h.037c.081 0 .164.003.247.008v-1.093c0-.025.001-.049.004-.074l-.002-.028a.065.065 0 00-.032-.041.066.066 0 00-.033-.009h-.004l-5.946 2.176v7.296zm-7.5-1.985c-.004.096.033.158.098.182l5.902 1.803v-7.296l-5.934-2.176-.005-.001a.059.059 0 00-.031.009.066.066 0 00-.033.042l.002.102v1.137c.409.084.77.271 1.041.543.294.296.456.673.454 1.063l-.006 2.697c0 .389-.163.765-.459 1.058a2.03 2.03 0 01-1.028.532v.305zm-.51-4.75c-.606 0-1.163.196-1.492.524-.113.113-.248.293-.248.514v.9c-.001.236.146.473.416.669.343.25.813.389 1.323.391.245-.001.411-.078.483-.15a.183.183 0 00.015-.017l.006-2.658-.017-.02c-.093-.094-.28-.154-.476-.154v-.375l-.01.376zm13.282 2.849c.091.09.277.149.472.149.523-.002.995-.141 1.339-.391.27-.196.418-.432.417-.665v-.904c0-.22-.135-.4-.248-.513-.33-.329-.889-.525-1.494-.525h-.019c-.236 0-.399.08-.474.155l-.016.019.008 2.658.015.017z"/><path d="M10.125 11.25a.75.75 0 01-.75-.75v-.75a.75.75 0 011.5 0v.75a.75.75 0 01-.75.75zm4.5 0a.75.75 0 01-.75-.75v-.75a.75.75 0 011.5 0v.75a.75.75 0 01-.75.75z"/></symbol><symbol id="wd-office-employee" viewBox="0 0 24 24"><title>office-employee</title><path d="M.75 24a.75.75 0 010-1.5h4.385l-1.34-6.057a1.893 1.893 0 01.276-1.466c.29-.445.787-.72 1.327-.731h13.189a1.639 1.639 0 011.348.741c.283.421.383.954.27 1.458l-1.34 6.055h4.385a.75.75 0 010 1.5H.75zm16.579-1.5l1.412-6.381a.391.391 0 00-.056-.304c-.03-.045-.068-.068-.112-.069H5.418a.132.132 0 00-.097.059.402.402 0 00-.063.311L6.671 22.5h10.658z"/><path d="M12 21c-1.241 0-2.25-1.009-2.25-2.25S10.759 16.5 12 16.5s2.25 1.009 2.25 2.25S13.241 21 12 21zm0-3a.75.75 0 100 1.5.75.75 0 000-1.5zm0-8.25a4.88 4.88 0 01-4.875-4.875c0-.839.221-1.669.639-2.404.017-.035.035-.061.046-.077A4.9 4.9 0 0112 0c2.384 0 4.449 1.774 4.812 4.13a.75.75 0 01.025.166c.025.212.038.401.038.579A4.88 4.88 0 0112 9.75zM8.73 4.037A3.379 3.379 0 0012 8.25a3.38 3.38 0 003.339-2.883 7.595 7.595 0 01-6.609-1.33zm.709-1.353a6.166 6.166 0 003.935 1.441c.63 0 1.245-.095 1.838-.282A3.396 3.396 0 0012 1.5c-.987 0-1.922.437-2.561 1.184zM7 13.5a.751.751 0 01-.562-1.247 7.412 7.412 0 015.558-2.502c2.13 0 4.159.912 5.566 2.502a.748.748 0 11-1.124.994 5.929 5.929 0 00-4.442-1.996 5.911 5.911 0 00-4.435 1.997A.751.751 0 017 13.5z"/></symbol><symbol id="wd-office-file-pdf-1" viewBox="0 0 24 24"><title>office-file-pdf-1</title><path d="M2.246 23.998a2.252 2.252 0 01-2.25-2.25v-19.5a2.252 2.252 0 012.25-2.25h10.629c.602 0 1.167.234 1.592.66l5.871 5.871c.425.425.659.99.659 1.592v4.628a.75.75 0 01-1.5 0v-3.75h-5.25a2.252 2.252 0 01-2.25-2.25v-5.25h-9.75a.75.75 0 00-.75.75v19.5c0 .414.336.75.75.75h3a.75.75 0 010 1.5H2.246zm11.25-17.25c0 .414.336.75.75.75h4.939l-5.689-5.689v4.939z"/><path d="M8.246 23.998a.75.75 0 01-.75-.75v-7.5a.75.75 0 01.75-.75H9c1.654 0 3 1.346 3 3s-1.346 3-3 3h-.004v2.25a.75.75 0 01-.75.75zm.754-4.5c.827 0 1.5-.673 1.5-1.5s-.673-1.5-1.5-1.5h-.004v3H9zm5.246 4.5a.75.75 0 01-.75-.75v-7.5a.75.75 0 01.75-.75 3.754 3.754 0 013.75 3.75v1.5a3.754 3.754 0 01-3.75 3.75zm.75-1.629a2.264 2.264 0 001.5-2.121v-1.5c0-.962-.621-1.808-1.5-2.121v5.742zm5.25 1.629a.75.75 0 01-.75-.75v-6a2.252 2.252 0 012.25-2.25h1.5a.75.75 0 010 1.5h-1.5a.75.75 0 00-.75.75v2.25h1.5a.75.75 0 010 1.5h-1.5v2.25a.75.75 0 01-.75.75z"/></symbol><symbol id="wd-phone-actions-ring" viewBox="0 0 24 24"><title>phone-actions-ring</title><path d="M14.785 24.021a5.26 5.26 0 01-2.826-.829l-.038-.026A41.144 41.144 0 01.792 12.017C-.531 9.94-.234 7.257 1.52 5.503l.63-.629a2.233 2.233 0 011.59-.657c.602 0 1.167.234 1.591.658l2.652 2.651c.425.425.659.99.658 1.592 0 .602-.234 1.167-.659 1.591a.75.75 0 000 1.06l4.242 4.243c.141.141.329.219.53.219s.389-.078.53-.219c.425-.425.99-.658 1.592-.658s1.167.234 1.591.658l2.645 2.644c.433.433.667.998.667 1.599s-.235 1.166-.66 1.591l-.628.629a5.207 5.207 0 01-3.706 1.546zM3.741 5.716a.744.744 0 00-.53.219l-.631.63a3.728 3.728 0 00-.511 4.667 39.666 39.666 0 0010.703 10.699l.023.016a3.705 3.705 0 001.984.575c.996 0 1.938-.394 2.653-1.108l.629-.629a.745.745 0 00.22-.531.745.745 0 00-.215-.526l-2.658-2.656c-.142-.142-.33-.219-.531-.219s-.389.078-.53.219c-.425.425-.99.658-1.592.658a2.234 2.234 0 01-1.59-.658l-4.242-4.243a2.253 2.253 0 010-3.182.75.75 0 00.001-1.061l-2.653-2.65a.743.743 0 00-.53-.22zm11.991 7.796a.75.75 0 01-.75-.75 3.754 3.754 0 00-3.75-3.75.75.75 0 010-1.5 5.256 5.256 0 015.25 5.25.75.75 0 01-.75.75z"/><path d="M19.482 13.512a.75.75 0 01-.75-.75c0-4.135-3.365-7.5-7.5-7.5a.75.75 0 010-1.5c4.963 0 9 4.037 9 9a.75.75 0 01-.75.75z"/><path d="M23.232 13.512a.75.75 0 01-.75-.75c0-6.203-5.047-11.25-11.25-11.25a.75.75 0 010-1.5c7.03 0 12.75 5.72 12.75 12.75a.75.75 0 01-.75.75z"/></symbol><symbol id="wd-phone-circle" viewBox="0 0 24 24"><title>phone-circle</title><path d="M11.989 24.022c-2.579 0-5.136-.853-7.2-2.4a11.926 11.926 0 01-4.68-7.904 11.927 11.927 0 012.28-8.898C4.675 1.772 8.18.025 12.004.025c2.612 0 5.097.828 7.187 2.396 5.293 3.971 6.37 11.508 2.399 16.802a.747.747 0 01-1.05.15.75.75 0 01-.15-1.05 10.431 10.431 0 001.99-7.785 10.425 10.425 0 00-4.09-6.916 10.396 10.396 0 00-6.288-2.097c-3.347 0-6.414 1.529-8.414 4.196a10.436 10.436 0 00-1.995 7.786 10.432 10.432 0 004.094 6.916 10.569 10.569 0 006.3 2.101c2.177 0 3.751-.547 4.434-1.54.379-.551.476-1.274.287-2.106a3.843 3.843 0 01-.838.093 3.98 3.98 0 01-2.076-.588.616.616 0 01-.087-.05 29.75 29.75 0 01-8.032-8.03.864.864 0 01-.052-.089 3.964 3.964 0 01.583-4.883l.454-.454a1.822 1.822 0 011.294-.534c.49 0 .95.191 1.295.539l1.898 1.898a1.83 1.83 0 010 2.582.327.327 0 000 .461l3.042 3.043a.326.326 0 00.462 0c.344-.344.802-.533 1.29-.533s.946.189 1.29.533l1.9 1.901c.711.712.711 1.87 0 2.581l-.453.452c-.172.172-.363.33-.572.472.378 1.357.225 2.584-.448 3.562-.985 1.433-2.945 2.19-5.669 2.19zm2.547-6.948a2.463 2.463 0 003.083-.337l.452-.451a.326.326 0 00-.001-.46l-1.9-1.9a.328.328 0 00-.461.001c-.344.344-.802.533-1.291.533s-.947-.189-1.291-.533l-3.042-3.043a1.828 1.828 0 010-2.581.327.327 0 000-.461l-1.9-1.9a.314.314 0 00-.232-.101l-.001-.375v.375a.321.321 0 00-.23.095l-.454.454a2.463 2.463 0 00-.337 3.081l.028.048a28.274 28.274 0 007.527 7.526.815.815 0 01.05.029z"/></symbol><symbol id="wd-pin" viewBox="0 0 24 24"><title>pin</title><path d="M12 12.75c-2.481 0-4.5-2.019-4.5-4.5s2.019-4.5 4.5-4.5 4.5 2.019 4.5 4.5-2.019 4.5-4.5 4.5zm0-7.5c-1.654 0-3 1.346-3 3s1.346 3 3 3 3-1.346 3-3-1.346-3-3-3z"/><path d="M11.998 24.001a1.499 1.499 0 01-1.248-.671c-.702-1.057-2.448-3.866-4.039-6.925C4.746 12.625 3.75 9.882 3.75 8.25 3.75 3.701 7.451 0 12 0s8.25 3.701 8.25 8.25c0 1.631-.996 4.375-2.961 8.155-1.59 3.058-3.337 5.867-4.039 6.925a1.488 1.488 0 01-1.252.671zM12 1.5a6.758 6.758 0 00-6.75 6.75c0 2.88 4.396 10.702 6.75 14.25 2.354-3.548 6.75-11.371 6.75-14.25A6.758 6.758 0 0012 1.5z"/></symbol><symbol id="wd-police-rotating-light" viewBox="0 0 24 24"><title>police-rotating-light</title><path d="M3.75 24a2.252 2.252 0 01-2.25-2.25 3.735 3.735 0 013.072-3.688L5.708 7.836A3.745 3.745 0 019.435 4.5h5.13a3.747 3.747 0 013.731 3.336l1.133 10.225a3.735 3.735 0 013.072 3.688 2.252 2.252 0 01-2.25 2.25H3.75zm1.5-4.5A2.252 2.252 0 003 21.75c0 .414.336.75.75.75h16.5a.75.75 0 00.75-.75 2.252 2.252 0 00-2.25-2.25H5.25zM17.912 18l-1.108-9.999A2.247 2.247 0 0014.568 6H9.435a2.25 2.25 0 00-2.237 2.002L6.088 18h5.162v-1.598A3.016 3.016 0 019 13.5c0-1.654 1.346-3 3-3s3 1.346 3 3c0 1.37-.947 2.564-2.25 2.902V18h5.162zM12 12c-.827 0-1.5.673-1.5 1.5S11.173 15 12 15s1.5-.673 1.5-1.5S12.827 12 12 12zm0-9a.75.75 0 01-.75-.75V.75a.75.75 0 011.5 0v1.5A.75.75 0 0112 3zM.75 10.5a.75.75 0 010-1.5h1.5a.75.75 0 010 1.5H.75zm3-6a.743.743 0 01-.53-.22l-1.5-1.5c-.142-.141-.22-.33-.22-.53s.078-.389.22-.53c.141-.142.33-.22.53-.22s.389.078.53.22l1.5 1.5c.142.141.22.33.22.53s-.078.389-.22.53a.743.743 0 01-.53.22zm18 6a.75.75 0 010-1.5h1.5a.75.75 0 010 1.5h-1.5zm-1.5-6a.743.743 0 01-.53-.22c-.142-.141-.22-.33-.22-.53s.078-.389.22-.53l1.5-1.5a.744.744 0 011.06 0c.142.141.22.33.22.53s-.078.389-.22.53l-1.5 1.5a.743.743 0 01-.53.22z"/></symbol><symbol id="wd-protection-shield-star" viewBox="0 0 24 24"><title>protection-shield-star</title><path d="M12 24.001a3.74 3.74 0 01-1.346-.25l-1.041-.4C4.76 21.484 1.5 16.737 1.5 11.538V3.924A2.239 2.239 0 012.806 1.88 22.305 22.305 0 0111.788 0l.219.001.186-.001c3.115 0 6.14.631 8.989 1.875A2.246 2.246 0 0122.5 3.929v7.609c0 5.199-3.26 9.946-8.113 11.813l-1.041.4a3.74 3.74 0 01-1.346.25zM11.8 1.5a20.84 20.84 0 00-8.382 1.749.732.732 0 00-.418.67v7.619c0 4.583 2.874 8.768 7.151 10.413l1.041.4a2.24 2.24 0 001.616.001l1.041-.4C18.126 20.305 21 16.121 21 11.538V3.924a.742.742 0 00-.43-.68A20.807 20.807 0 0012.194 1.5l-.187.001L11.8 1.5z"/><path d="M9.521 15.526a1.229 1.229 0 01-1.217-1.434l.365-2.113-1.546-1.499a1.228 1.228 0 01-.311-1.263 1.23 1.23 0 01.997-.831l2.134-.308.951-1.921a1.235 1.235 0 011.662-.55c.24.121.43.311.55.55l.951 1.918 2.136.309a1.224 1.224 0 01.682 2.096l-1.544 1.497.364 2.111a1.23 1.23 0 01-1.216 1.436c-.199 0-.397-.049-.575-.141L12 14.388l-1.903.996a1.249 1.249 0 01-.576.142zm.296-4.523c.29.28.423.685.355 1.084l-.296 1.719 1.549-.811a1.253 1.253 0 011.148-.001l1.552.811-.297-1.718a1.226 1.226 0 01.357-1.088l1.247-1.21-1.726-.25a1.232 1.232 0 01-.929-.669L12 7.304l-.776 1.567c-.182.364-.53.615-.931.672l-1.725.249 1.249 1.211z"/></symbol><symbol id="wd-read-glasses" viewBox="0 0 24 24"><title>read-glasses</title><path d="M3.75 16.501a.75.75 0 010-1.5h18a.75.75 0 010 1.5h-18zm0 3a.75.75 0 010-1.5h18a.75.75 0 010 1.5h-18zm13.5-9a4.478 4.478 0 01-4.491-4.318.674.674 0 01-.009-.111.75.75 0 00-1.5 0 .791.791 0 01-.008.11 4.48 4.48 0 01-4.492 4.319c-2.188 0-4.073-1.621-4.435-3.75H.75a.75.75 0 010-1.5h1.565c.362-2.129 2.247-3.75 4.435-3.75a4.484 4.484 0 014.096 2.639A2.24 2.24 0 0112 3.822c.412 0 .808.111 1.154.318a4.484 4.484 0 014.096-2.639c2.188 0 4.073 1.621 4.435 3.75h1.565a.75.75 0 010 1.5h-1.565c-.362 2.129-2.247 3.75-4.435 3.75zm0-7.5c-1.654 0-3 1.346-3 3s1.346 3 3 3 3-1.346 3-3-1.346-3-3-3zm-10.5 0c-1.654 0-3 1.346-3 3s1.346 3 3 3 3-1.346 3-3-1.346-3-3-3z"/><path d="M3.75 22.501A3.754 3.754 0 010 18.751v-3a3.754 3.754 0 013.75-3.75h19.5a.75.75 0 010 1.5H3.75a2.252 2.252 0 00-2.25 2.25v3a2.252 2.252 0 002.25 2.25h19.5a.75.75 0 010 1.5H3.75z"/></symbol><symbol id="wd-read-search" viewBox="0 0 24 24"><title>read-search</title><path d="M7.489 19.831a.744.744 0 01-.363-.094 13.841 13.841 0 00-5.161-1.652A2.252 2.252 0 010 15.858V2.26A2.26 2.26 0 012.568.026a16.684 16.684 0 018.229 3.744.745.745 0 00.431.145l.021-.001a.766.766 0 00.476-.163A16.632 16.632 0 0119.922.028a2.236 2.236 0 011.925.642c.423.426.655.992.652 1.594v7.49a.75.75 0 01-1.5 0V2.26a.748.748 0 00-.747-.757.734.734 0 00-.109.008 15.173 15.173 0 00-7.474 3.405c-.208.162-.43.283-.67.365v2.22a.75.75 0 01-1.5 0V5.283a2.218 2.218 0 01-.646-.348A15.204 15.204 0 002.348 1.51a.753.753 0 00-.849.747V15.86c0 .373.278.689.646.737 2.008.229 3.93.844 5.707 1.829a.75.75 0 01-.363 1.405z"/><path d="M8.253 7.98a.748.748 0 01-.4-.116 14.17 14.17 0 00-3.525-1.597.751.751 0 01.212-1.469c.073 0 .145.011.215.032a15.641 15.641 0 013.898 1.766.75.75 0 01-.4 1.384zm0 3.745a.745.745 0 01-.445-.147A9.635 9.635 0 003.62 9.824a.749.749 0 11.235-1.481c1.746.277 3.421.979 4.843 2.028a.75.75 0 01-.445 1.354zm5.993-3.745a.749.749 0 01-.732-.916.747.747 0 01.331-.469 15.634 15.634 0 013.899-1.767.754.754 0 01.932.506.746.746 0 01-.506.932 14.127 14.127 0 00-3.524 1.597.732.732 0 01-.4.117zm9.003 16.022a.743.743 0 01-.53-.22l-2.759-2.759a6.736 6.736 0 01-4.21 1.479A6.758 6.758 0 019 15.752c0-3.722 3.028-6.75 6.75-6.75s6.75 3.028 6.75 6.75a6.734 6.734 0 01-1.479 4.21l2.759 2.759a.752.752 0 01-.531 1.281zm-7.5-13.501a5.256 5.256 0 00-5.25 5.25c0 2.895 2.355 5.25 5.25 5.25s5.25-2.355 5.25-5.25a5.256 5.256 0 00-5.25-5.25z"/><path d="M15.749 18.002a.75.75 0 01-.75-.75v-2.25h-.75a.75.75 0 010-1.5h3a.75.75 0 010 1.5h-.75v2.25a.75.75 0 01-.75.75z"/></symbol><symbol id="wd-saving-bank-1" viewBox="0 0 24 24"><title>saving-bank-1</title><path d="M1.5 24a.75.75 0 010-1.5h21a.75.75 0 010 1.5h-21zm0-3a.75.75 0 010-1.5h21a.75.75 0 010 1.5h-21zM3 18a.75.75 0 01-.75-.75v-7.5a.75.75 0 011.5 0v7.5A.75.75 0 013 18zm3 0a.75.75 0 01-.75-.75v-7.5a.75.75 0 011.5 0v7.5A.75.75 0 016 18zm4.5 0a.75.75 0 01-.75-.75v-7.5a.75.75 0 011.5 0v7.5a.75.75 0 01-.75.75zm3 0a.75.75 0 01-.75-.75v-7.5a.75.75 0 011.5 0v7.5a.75.75 0 01-.75.75zm4.5 0a.75.75 0 01-.75-.75v-7.5a.75.75 0 011.5 0v7.5A.75.75 0 0118 18zm3 0a.75.75 0 01-.75-.75v-7.5a.75.75 0 011.5 0v7.5A.75.75 0 0121 18zM1.5 7.5a.752.752 0 01-.723-.551.752.752 0 01.34-.843L10.806.344A2.198 2.198 0 0111.997 0c.434 0 .856.124 1.22.357l9.667 5.748a.752.752 0 01.34.843.753.753 0 01-.724.552h-21zM19.771 6l-7.344-4.367a.792.792 0 00-.431-.131.746.746 0 00-.403.118L4.228 6h15.543z"/></symbol><symbol id="wd-share" viewBox="0 0 24 24"><title>share</title><path d="M18.75 22.5a4.505 4.505 0 01-4.5-4.5c0-.444.067-.884.198-1.312l-5.571-2.785A4.47 4.47 0 015.25 15.75a4.505 4.505 0 01-4.5-4.5c0-2.481 2.019-4.5 4.5-4.5 1.598 0 3.047.833 3.859 2.195l5.236-2.036A4.455 4.455 0 0114.25 6c0-2.481 2.019-4.5 4.5-4.5s4.5 2.019 4.5 4.5-2.019 4.5-4.5 4.5a4.477 4.477 0 01-3.859-2.194l-5.236 2.036a4.441 4.441 0 01-.104 2.22l5.57 2.785a4.47 4.47 0 013.628-1.848c2.481 0 4.5 2.019 4.5 4.5S21.231 22.5 18.75 22.5zm0-7.5c-1.654 0-3 1.346-3 3s1.346 3 3 3 3-1.346 3-3-1.346-3-3-3zM5.25 8.25c-1.654 0-3 1.346-3 3s1.346 3 3 3 3-1.346 3-3-1.346-3-3-3zM18.75 3c-1.654 0-3 1.346-3 3s1.346 3 3 3 3-1.346 3-3-1.346-3-3-3z"/></symbol><symbol id="wd-task-list-upload-1" viewBox="0 0 24 24"><title>task-list-upload-1</title><path d="M17.25 24.011c-3.722 0-6.75-3.028-6.75-6.75s3.028-6.75 6.75-6.75S24 13.539 24 17.261s-3.028 6.75-6.75 6.75zm0-12c-2.895 0-5.25 2.355-5.25 5.25s2.355 5.25 5.25 5.25 5.25-2.355 5.25-5.25-2.355-5.25-5.25-5.25z"/><path d="M17.25 21.011a.75.75 0 01-.75-.75v-4.189l-.97.97a.744.744 0 01-1.06 0 .752.752 0 010-1.061l2.25-2.25a.74.74 0 01.245-.163l.026-.01a.733.733 0 01.517-.001l.017.006a.748.748 0 01.256.167l2.25 2.25a.752.752 0 01-.53 1.281.743.743 0 01-.53-.22l-.971-.97v4.189a.751.751 0 01-.75.751zm-12-9.75a.75.75 0 010-1.5h5.25a.75.75 0 010 1.5H5.25zm0 3.75a.75.75 0 010-1.5h3a.75.75 0 010 1.5h-3zm0 3.75a.75.75 0 010-1.5h3a.75.75 0 010 1.5h-3z"/><path d="M2.25 24.011A2.252 2.252 0 010 21.761V6.011a2.252 2.252 0 012.25-2.25h3.063C5.675 1.632 7.561.011 9.75.011c2.19 0 4.076 1.621 4.437 3.75h3.063a2.252 2.252 0 012.25 2.25v2.25a.75.75 0 01-1.5 0v-2.25a.75.75 0 00-.75-.75H13.5a.75.75 0 01-.75-.75c0-1.654-1.346-3-3-3s-3 1.346-3 3a.75.75 0 01-.75.75H2.25a.75.75 0 00-.75.75v15.75c0 .414.336.75.75.75h7.5a.75.75 0 010 1.5h-7.5z"/><circle cx="9.75" cy="4.136" r="1.125"/></symbol><symbol id="wd-team-meeting-chat" viewBox="0 0 24 24"><title>team-meeting-chat</title><path d="M10.071 24a.75.75 0 01-.708-.998A7.49 7.49 0 0116.405 18a7.496 7.496 0 017.052 5.001.75.75 0 11-1.415.498 5.963 5.963 0 00-4.885-3.947v3.698a.75.75 0 01-1.5 0v-3.697a5.963 5.963 0 00-4.878 3.946.753.753 0 01-.708.501zm6.336-6a4.88 4.88 0 01-4.875-4.875 4.867 4.867 0 01.684-2.479 4.898 4.898 0 014.191-2.396c2.384 0 4.449 1.774 4.812 4.13a.75.75 0 01.025.166c.025.212.038.401.038.579A4.88 4.88 0 0116.407 18zm-3.27-5.713a3.379 3.379 0 003.269 4.213 3.38 3.38 0 003.34-2.885 7.636 7.636 0 01-6.609-1.328zm.711-1.357a6.104 6.104 0 003.952 1.435c.621 0 1.231-.093 1.817-.277a3.395 3.395 0 00-3.21-2.338c-.986 0-1.92.436-2.559 1.18zm-4.191.32a.753.753 0 01-.45-.15L6.407 9h-4.25a2.252 2.252 0 01-2.25-2.25v-4.5A2.252 2.252 0 012.157 0h9a2.252 2.252 0 012.25 2.25v4.5A2.252 2.252 0 0111.157 9h-.75v1.5a.747.747 0 01-.75.75zm-7.5-9.75a.75.75 0 00-.75.75v4.5c0 .414.336.75.75.75h4.5c.161 0 .321.053.45.15L8.907 9v-.75a.75.75 0 01.75-.75h1.5a.75.75 0 00.75-.75v-4.5a.75.75 0 00-.75-.75h-9z"/><path d="M3.657 3.75a.75.75 0 010-1.5h3.75a.75.75 0 010 1.5h-3.75zm0 2.25a.75.75 0 010-1.5h6a.75.75 0 010 1.5h-6zM5.5 19.5c-2.068 0-3.75-1.682-3.75-3.75S3.432 12 5.5 12s3.75 1.682 3.75 3.75S7.567 19.5 5.5 19.5zm0-6c-1.241 0-2.25 1.009-2.25 2.25S4.259 18 5.5 18s2.25-1.009 2.25-2.25S6.74 13.5 5.5 13.5zM1.276 24a.751.751 0 01-.676-.425.74.74 0 01-.031-.573A5.245 5.245 0 015.5 19.501c1.12 0 2.222.366 3.112 1.031a.74.74 0 01.293.494.742.742 0 01-.141.556.756.756 0 01-.601.301.744.744 0 01-.448-.149A3.71 3.71 0 005.507 21a3.744 3.744 0 00-3.524 2.499.75.75 0 01-.707.501z"/></symbol><symbol id="wd-view-1" viewBox="0 0 24 24"><title>view-1</title><path d="M11.842 19.499c-4.333 0-8.636-3.04-11.219-5.884a2.409 2.409 0 01-.002-3.232C3.205 7.538 7.513 4.5 11.855 4.5l.151.001.153-.001c4.328 0 8.634 3.038 11.219 5.881.831.923.832 2.312.002 3.233-2.586 2.846-6.897 5.886-11.245 5.886l-.149-.001h-.144zm.011-13.5c-3.851 0-7.753 2.784-10.12 5.39a.91.91 0 00.002 1.22c2.366 2.605 6.267 5.39 10.12 5.39l.131-.001.136.001c3.867 0 7.776-2.785 10.145-5.392a.91.91 0 00-.002-1.22C19.897 8.783 15.993 6 12.142 6l-.156.001-.133-.002z"/><path d="M11.998 16.498a4.471 4.471 0 01-3.182-1.319 4.465 4.465 0 01-1.317-3.182 4.505 4.505 0 014.5-4.499c1.202 0 2.332.468 3.182 1.317a4.468 4.468 0 011.318 3.181 4.471 4.471 0 01-1.319 3.185 4.471 4.471 0 01-3.181 1.317h-.001zm.002-7.5c-1.654 0-3 1.345-3 2.999 0 .801.312 1.555.878 2.121a2.98 2.98 0 002.121.879c.802 0 1.555-.312 2.121-.878s.879-1.32.879-2.121c0-.804-.312-1.557-.879-2.123A2.982 2.982 0 0012 8.998z"/></symbol></svg>